<svg id="Layer_1" data-name="Layer 1" xmlns="http://www.w3.org/2000/svg" xmlns:xlink="http://www.w3.org/1999/xlink" viewBox="0 0 430.67 212.17"><defs><style>.cls-1{fill:#39d2d7;}.cls-2{fill:url(#linear-gradient);}.cls-3{fill:url(#linear-gradient-2);}.cls-4{fill:url(#linear-gradient-3);}.cls-5{fill:url(#linear-gradient-4);}.cls-6{fill:url(#linear-gradient-5);}.cls-7{fill:url(#linear-gradient-6);}.cls-8{fill:url(#linear-gradient-7);}.cls-9{fill:url(#linear-gradient-8);}.cls-10{fill:url(#linear-gradient-9);}.cls-11{fill:url(#linear-gradient-10);}.cls-12{fill:url(#linear-gradient-11);}.cls-13{fill:url(#linear-gradient-12);}.cls-14{fill:url(#linear-gradient-13);}.cls-15{fill:url(#linear-gradient-14);}.cls-16{fill:url(#linear-gradient-15);}.cls-17{fill:url(#linear-gradient-16);}.cls-18{fill:#93edf0;}</style><linearGradient id="linear-gradient" x1="72.02" y1="3.33" x2="540.78" y2="315.84" gradientUnits="userSpaceOnUse"><stop offset="0" stop-color="#dffeff"/><stop offset="1" stop-color="#b5e6e7"/></linearGradient><linearGradient id="linear-gradient-2" x1="78.6" y1="-6.54" x2="547.36" y2="305.97" xlink:href="#linear-gradient"/><linearGradient id="linear-gradient-3" x1="87.43" y1="-19.79" x2="556.2" y2="292.72" xlink:href="#linear-gradient"/><linearGradient id="linear-gradient-4" x1="95.72" y1="-32.22" x2="564.48" y2="280.29" xlink:href="#linear-gradient"/><linearGradient id="linear-gradient-5" x1="103" y1="-43.15" x2="571.77" y2="269.37" xlink:href="#linear-gradient"/><linearGradient id="linear-gradient-6" x1="55.02" y1="28.84" x2="523.78" y2="341.35" xlink:href="#linear-gradient"/><linearGradient id="linear-gradient-7" x1="48.05" y1="39.29" x2="516.81" y2="351.8" xlink:href="#linear-gradient"/><linearGradient id="linear-gradient-8" x1="69.35" y1="7.34" x2="538.11" y2="319.85" xlink:href="#linear-gradient"/><linearGradient id="linear-gradient-9" x1="94.52" y1="-30.42" x2="563.28" y2="282.09" xlink:href="#linear-gradient"/><linearGradient id="linear-gradient-10" x1="106.26" y1="-48.02" x2="575.02" y2="264.49" xlink:href="#linear-gradient"/><linearGradient id="linear-gradient-11" x1="123.43" y1="-73.79" x2="592.2" y2="238.72" xlink:href="#linear-gradient"/><linearGradient id="linear-gradient-12" x1="28.05" y1="69.28" x2="496.82" y2="381.79" xlink:href="#linear-gradient"/><linearGradient id="linear-gradient-13" x1="26.35" y1="71.83" x2="495.12" y2="384.34" xlink:href="#linear-gradient"/><linearGradient id="linear-gradient-14" x1="50.13" y1="36.16" x2="518.9" y2="348.67" xlink:href="#linear-gradient"/><linearGradient id="linear-gradient-15" x1="67.68" y1="9.84" x2="536.45" y2="322.35" xlink:href="#linear-gradient"/><linearGradient id="linear-gradient-16" x1="86.59" y1="-18.52" x2="555.35" y2="293.99" xlink:href="#linear-gradient"/></defs><path class="cls-1" d="M391.76,114.26l-14.11-7.92v-3.72l14.11-7.92v6.2l-7,3.58,7,3.58Z"/><path class="cls-1" d="M409.8,86.16l-15.36,39.16-4.6-1.23q1.64-4.49,7.39-21,2.63-7.68,5.93-19.07Z"/><path class="cls-1" d="M423.24,106.34l-14.11,7.92v-6.2l7.06-3.58-7.06-3.58V94.7l14.11,7.92Z"/><path class="cls-1" d="M28,180.75l-14.11-7.92v-3.72L28,161.19v6.2l-7,3.58,7,3.58Z"/><path class="cls-1" d="M46,152.65,30.67,191.81l-4.6-1.23q1.63-4.49,7.38-21,2.64-7.68,5.94-19.07Z"/><path class="cls-1" d="M59.46,172.83l-14.11,7.92v-6.2L52.42,171l-7.07-3.58v-6.2l14.11,7.92Z"/><polygon class="cls-2" points="117.57 35.13 105.2 35.13 105.2 11.11 102.01 11.11 102.01 37.67 117.57 37.67 117.57 35.13"/><path class="cls-3" d="M124.2,30.84h11.31L138,37.67h3.38l-9.75-26.56H128.2l-9.79,26.56h3.34Zm5.67-15.75,4.71,13.17h-9.45Z"/><path class="cls-4" d="M146.79,36.4a12.25,12.25,0,0,0,6.53,1.73,13.08,13.08,0,0,0,4-.55,8.33,8.33,0,0,0,2.9-1.63,11.21,11.21,0,0,0,2.18-2.64l.27,4.36h2.92V23.48H154.65V26h7.66a11.34,11.34,0,0,1-2.46,6.8q-2.16,2.51-6.42,2.5A9.1,9.1,0,0,1,148.59,34a8.65,8.65,0,0,1-3.28-3.74,13.37,13.37,0,0,1-1.17-5.82,13.29,13.29,0,0,1,1.17-5.81,8.73,8.73,0,0,1,3.36-3.74,9.78,9.78,0,0,1,5.11-1.3A8.61,8.61,0,0,1,158.9,15a6.14,6.14,0,0,1,2.5,3.79h3.69a9.58,9.58,0,0,0-3.84-6,12.52,12.52,0,0,0-7.47-2.15,13,13,0,0,0-6.85,1.75,11.63,11.63,0,0,0-4.48,4.86,15.64,15.64,0,0,0-1.58,7.17,15.65,15.65,0,0,0,1.56,7.17A11.72,11.72,0,0,0,146.79,36.4Z"/><path class="cls-5" d="M173.87,36.4a13,13,0,0,0,6.74,1.73,13.11,13.11,0,0,0,6.81-1.73,11.83,11.83,0,0,0,4.5-4.82,15.52,15.52,0,0,0,1.59-7.19,15.4,15.4,0,0,0-1.59-7.15,12,12,0,0,0-4.5-4.84,13,13,0,0,0-6.81-1.75,12.87,12.87,0,0,0-6.74,1.75,12,12,0,0,0-4.52,4.84,15.29,15.29,0,0,0-1.61,7.15,15.4,15.4,0,0,0,1.61,7.19A11.88,11.88,0,0,0,173.87,36.4ZM172.2,18.53a8.61,8.61,0,0,1,3.38-3.74,10.51,10.51,0,0,1,10.09,0,8.61,8.61,0,0,1,3.38,3.74,13.17,13.17,0,0,1,1.2,5.86,13.17,13.17,0,0,1-1.2,5.86A8.66,8.66,0,0,1,185.67,34a10.37,10.37,0,0,1-10.09,0,8.66,8.66,0,0,1-3.38-3.76A13.17,13.17,0,0,1,171,24.39,13.17,13.17,0,0,1,172.2,18.53Z"/><path class="cls-6" d="M207.8,34.85a7.3,7.3,0,0,1-3.06.58,7,7,0,0,1-3.43-.77,5.3,5.3,0,0,1-2.11-2.09,5.85,5.85,0,0,1-.72-2.87h-3.34a8.17,8.17,0,0,0,1.18,4.41,7.91,7.91,0,0,0,3.34,3,11.49,11.49,0,0,0,5.08,1.06,10.48,10.48,0,0,0,5-1.06,7.47,7.47,0,0,0,3-2.76,6.88,6.88,0,0,0,1-3.58,7.13,7.13,0,0,0-.86-3.68,7,7,0,0,0-2.35-2.38,16.71,16.71,0,0,0-3.43-1.57l-3.12-1a15.77,15.77,0,0,1-2.44-1,4.41,4.41,0,0,1-1.6-1.35,3.63,3.63,0,0,1-.55-2.08,3.91,3.91,0,0,1,2.37-3.78,5.7,5.7,0,0,1,2.57-.47,5.49,5.49,0,0,1,2.9.7,4.58,4.58,0,0,1,2.3,3.93h3.33a6.88,6.88,0,0,0-1.06-3.82,7.36,7.36,0,0,0-2.94-2.6,9.73,9.73,0,0,0-4.42-.95,10,10,0,0,0-4.46.93,6.92,6.92,0,0,0-2.88,2.56,7.12,7.12,0,0,0-1,3.8,5.77,5.77,0,0,0,1.48,4.12,11.11,11.11,0,0,0,4.63,2.63c1.09.38,2.13.73,3.13,1a14.79,14.79,0,0,1,2.64,1.08,4.93,4.93,0,0,1,1.8,1.57,4.42,4.42,0,0,1,.67,2.53,4.17,4.17,0,0,1-.67,2.31A4.5,4.5,0,0,1,207.8,34.85Z"/><rect class="cls-7" x="20.34" y="4.05" width="16.27" height="14.18"/><path class="cls-8" d="M92.18,101.08c0,13.69,10.25,21.51,26.27,21.51a23.26,23.26,0,0,0,19.46-10.25v8.33h16.27V85.31c0-22-10-30.6-30.86-30.6C104.1,54.71,97.19,63.8,95.91,76h15c.88-4,3.57-7.67,12.54-7.67,10.25,0,14.35,4.6,14.47,17.92-4.74-4.61-12.42-6-18.82-6C103.59,80.19,92.18,87.11,92.18,101.08Zm45.73-3.33c0,8.57-8.57,13.18-16.13,13.18-5.9,0-12.93-3.19-12.93-9.85S115.88,91,123.58,91C128.3,91,137.91,93,137.91,97.75Z"/><path class="cls-9" d="M207.08,99.15c-2.57,6.4-6.66,9.74-14.47,9.74-10,0-17-8.07-17-20.63,0-11.66,5.52-20,16.52-20,7.82,0,12.94,3.84,14.61,10h14.86c-1.8-13.31-12.18-23.56-29.85-23.56-20.23,0-32.79,13.44-32.79,33.69,0,22,12.42,34.19,33.05,34.19,14.08,0,26.89-5.9,29.71-23.44Z"/><polygon class="cls-10" points="241.41 93.13 244.22 93.13 266.51 120.67 286.88 120.67 257.68 86.35 284.31 56.63 264.33 56.63 244.22 80.07 241.41 80.07 241.41 3.41 225.01 3.41 225.01 120.67 241.41 120.67 241.41 93.13"/><path class="cls-11" d="M313.13,122.59c15.11,0,27-7,29.21-21.51h-15c-2.06,5.24-7.56,7.81-14.34,7.81-10.38,0-15.76-6.16-17-15.76h47.39V87.36c-.5-19.71-13.44-32.65-32.4-32.65s-32,13.44-32,33.69C278.93,109.13,291.49,122.59,313.13,122.59Zm-1.41-54.3c9.49,0,15,5.38,16.27,14.73h-31.9C297.51,74.17,302.51,68.29,311.72,68.29Z"/><path class="cls-12" d="M363.85,86c0-13.46,11.28-14.1,21.13-14.1V55.47c-9,0-16.39,2.57-21.13,9.23V56.63H347.46v64h16.39Z"/><polygon class="cls-13" points="122.99 149.32 87.9 149.32 87.9 120.67 87.96 120.67 87.96 3.41 71.69 3.41 71.69 65.85 36.6 65.85 36.6 32.41 20.34 32.41 20.34 120.67 36.6 120.67 36.6 81.86 71.69 81.86 71.69 114.49 71.64 114.49 71.64 204.14 87.9 204.14 87.9 165.33 122.99 165.33 122.99 204.14 139.26 204.14 139.26 127.19 122.99 133.13 122.99 149.32"/><path class="cls-14" d="M176.54,138.18c-20.49,0-34.58,13.46-34.58,33.69,0,20.75,14.09,34.21,34.58,34.21,21.13,0,35.11-13.46,35.11-34.21C211.65,151.64,197.67,138.18,176.54,138.18Zm.38,54.18c-11,0-18.18-8.07-18.18-20.35,0-11.8,7.18-20.25,18.18-20.25,10.77,0,18.06,8.45,18.06,20.25C195,184.29,187.69,192.36,176.92,192.36Z"/><path class="cls-15" d="M262.74,174.3c0,11.92-5.38,18.32-15.63,18.32-8.83,0-15-4.1-15-17.16V140.11H215.87V179.3c0,19.86,10.89,26.78,27.79,26.78,9,0,15.11-3.85,19.08-9.87v7.93H279v-64H262.74Z"/><path class="cls-16" d="M315.9,165.33c-12.44-1.53-16.4-3.07-16.4-8.19,0-4.49,4.36-7,11.4-7s11.4,3.33,11.52,8.32h14.35c-.38-12.92-7-20.24-26.39-20.24-18.44,0-25.73,8.85-25.73,20.11,0,13.06,9.72,17.05,23.06,18.7,10.11,1.28,16.39,2.57,16.39,8.71s-6.8,7.82-12.68,7.82c-8.46,0-13.2-4.37-13.2-11.27H283.63c0,16.39,10.49,23.83,26.37,23.83,17.8,0,28.83-6.8,28.83-21S328.44,167,315.9,165.33Z"/><path class="cls-17" d="M404.65,170.85c-.5-19.73-13.44-32.67-32.39-32.67s-32,13.46-32,33.69c0,20.75,12.54,34.21,34.19,34.21,15.11,0,27-7.06,29.2-21.53h-15c-2.05,5.26-7.55,7.81-14.33,7.81-10.39,0-15.77-6.14-17-15.75h47.38Zm-47.25-4.36c1.4-8.83,6.4-14.73,15.62-14.73,9.48,0,15,5.38,16.26,14.73Z"/><rect class="cls-18" x="4.8" y="18.23" width="15.54" height="14.18"/></svg>